<svg width="64" height="64" viewBox="0 0 64 64" fill="none" xmlns="http://www.w3.org/2000/svg">
  <rect width="64" height="64" rx="16" fill="#10b981"/>
  <path d="M49.6 44.8H54.4C55.7255 44.8 56.8 43.7255 56.8 42.4V35.2C56.8 33.04 55.4 31.12 53.48 30.64C50.36 29.848 43.8801 28.4 43.8801 28.4S40.76 25.04 38.6 22.88C37.4 21.68 35.96 21.04 34.28 21.04H12.68C11.24 21.04 9.94001 21.848 9.38001 23.168L6.44001 29.344C5.48001 31.36 6.44001 35.2 6.44001 35.2V42.4C6.44001 43.7255 7.51453 44.8 8.84001 44.8H13.64M18.44 50.8C21.091 50.8 23.24 48.651 23.24 46C23.24 43.349 21.091 41.2 18.44 41.2C15.789 41.2 13.64 43.349 13.64 46C13.64 48.651 15.789 50.8 18.44 50.8ZM23.24 44.8H42.44M47.24 50.8C49.891 50.8 52.04 48.651 52.04 46C52.04 43.349 49.891 41.2 47.24 41.2C44.589 41.2 42.44 43.349 42.44 46C42.44 48.651 44.589 50.8 47.24 50.8Z" stroke="#0a0a0a" stroke-width="4" stroke-linecap="round" stroke-linejoin="round"/>
</svg>
